<mxfile host="65bd71144e">
    <diagram id="JEVn3mSV0aVD-ZGOuX2a" name="WS2812B">
        <mxGraphModel dx="1111" dy="604" grid="1" gridSize="10" guides="1" tooltips="1" connect="1" arrows="1" fold="1" page="1" pageScale="1" pageWidth="850" pageHeight="1100" math="0" shadow="0">
            <root>
                <mxCell id="0"/>
                <mxCell id="1" parent="0"/>
                <mxCell id="ymqoMdP5X18snwUqrnbU-1" value="" style="rounded=0;whiteSpace=wrap;html=1;strokeColor=default;fontFamily=Source Code Pro;fontSource=https%3A%2F%2Ffonts.googleapis.com%2Fcss%3Ffamily%3DSource%2BCode%2BPro;fontSize=14;" parent="1" vertex="1">
                    <mxGeometry x="280" y="40" width="240" height="240" as="geometry"/>
                </mxCell>
                <mxCell id="ymqoMdP5X18snwUqrnbU-2" value="" style="rounded=0;whiteSpace=wrap;html=1;strokeColor=#666666;fontFamily=Source Code Pro;fontSource=https%3A%2F%2Ffonts.googleapis.com%2Fcss%3Ffamily%3DSource%2BCode%2BPro;fontSize=14;fillColor=#f5f5f5;fontColor=#333333;" parent="1" vertex="1">
                    <mxGeometry x="260" y="80" width="20" height="40" as="geometry"/>
                </mxCell>
                <mxCell id="ymqoMdP5X18snwUqrnbU-3" value="" style="rounded=0;whiteSpace=wrap;html=1;strokeColor=#666666;fontFamily=Source Code Pro;fontSource=https%3A%2F%2Ffonts.googleapis.com%2Fcss%3Ffamily%3DSource%2BCode%2BPro;fontSize=14;fillColor=#f5f5f5;fontColor=#333333;" parent="1" vertex="1">
                    <mxGeometry x="260" y="200" width="20" height="40" as="geometry"/>
                </mxCell>
                <mxCell id="ymqoMdP5X18snwUqrnbU-4" value="" style="rounded=0;whiteSpace=wrap;html=1;strokeColor=#666666;fontFamily=Source Code Pro;fontSource=https%3A%2F%2Ffonts.googleapis.com%2Fcss%3Ffamily%3DSource%2BCode%2BPro;fontSize=14;fillColor=#f5f5f5;fontColor=#333333;" parent="1" vertex="1">
                    <mxGeometry x="520" y="80" width="20" height="40" as="geometry"/>
                </mxCell>
                <mxCell id="ymqoMdP5X18snwUqrnbU-5" value="" style="rounded=0;whiteSpace=wrap;html=1;strokeColor=#666666;fontFamily=Source Code Pro;fontSource=https%3A%2F%2Ffonts.googleapis.com%2Fcss%3Ffamily%3DSource%2BCode%2BPro;fontSize=14;fillColor=#f5f5f5;fontColor=#333333;" parent="1" vertex="1">
                    <mxGeometry x="520" y="200" width="20" height="40" as="geometry"/>
                </mxCell>
                <mxCell id="ymqoMdP5X18snwUqrnbU-6" value="" style="ellipse;whiteSpace=wrap;html=1;aspect=fixed;strokeColor=#080808;fontFamily=Source Code Pro;fontSource=https%3A%2F%2Ffonts.googleapis.com%2Fcss%3Ffamily%3DSource%2BCode%2BPro;fontSize=14;fillColor=#9C9C9C;fontColor=#333333;fillStyle=cross-hatch;" parent="1" vertex="1">
                    <mxGeometry x="310" y="70" width="180" height="180" as="geometry"/>
                </mxCell>
                <mxCell id="pz_hgYm6IndlnWrwU3yr-1" value="&lt;font style=&quot;font-size: 21px;&quot; data-font-src=&quot;https://fonts.googleapis.com/css?family=Source+Code+Pro&quot; face=&quot;Source Code Pro&quot;&gt;Vcc&lt;/font&gt;" style="text;html=1;strokeColor=none;fillColor=none;align=center;verticalAlign=middle;whiteSpace=wrap;rounded=0;" parent="1" vertex="1">
                    <mxGeometry x="120" y="80" width="120" height="40" as="geometry"/>
                </mxCell>
                <mxCell id="pz_hgYm6IndlnWrwU3yr-2" value="&lt;font style=&quot;font-size: 21px;&quot; data-font-src=&quot;https://fonts.googleapis.com/css?family=Source+Code+Pro&quot; face=&quot;Source Code Pro&quot;&gt;Data Out&lt;/font&gt;" style="text;html=1;strokeColor=none;fillColor=none;align=center;verticalAlign=middle;whiteSpace=wrap;rounded=0;" parent="1" vertex="1">
                    <mxGeometry x="120" y="200" width="120" height="40" as="geometry"/>
                </mxCell>
                <mxCell id="pz_hgYm6IndlnWrwU3yr-3" value="&lt;font style=&quot;font-size: 21px;&quot; data-font-src=&quot;https://fonts.googleapis.com/css?family=Source+Code+Pro&quot; face=&quot;Source Code Pro&quot;&gt;Data In&lt;/font&gt;" style="text;html=1;strokeColor=none;fillColor=none;align=center;verticalAlign=middle;whiteSpace=wrap;rounded=0;" parent="1" vertex="1">
                    <mxGeometry x="560" y="80" width="120" height="40" as="geometry"/>
                </mxCell>
                <mxCell id="pz_hgYm6IndlnWrwU3yr-4" value="&lt;font style=&quot;font-size: 21px;&quot; data-font-src=&quot;https://fonts.googleapis.com/css?family=Source+Code+Pro&quot; face=&quot;Source Code Pro&quot;&gt;Gnd&lt;/font&gt;" style="text;html=1;strokeColor=none;fillColor=none;align=center;verticalAlign=middle;whiteSpace=wrap;rounded=0;" parent="1" vertex="1">
                    <mxGeometry x="560" y="200" width="120" height="40" as="geometry"/>
                </mxCell>
                <mxCell id="pz_hgYm6IndlnWrwU3yr-14" style="edgeStyle=none;html=1;exitX=1;exitY=0.5;exitDx=0;exitDy=0;entryX=0;entryY=0.5;entryDx=0;entryDy=0;fontFamily=Source Code Pro;fontSource=https%3A%2F%2Ffonts.googleapis.com%2Fcss%3Ffamily%3DSource%2BCode%2BPro;fontSize=14;fillColor=#fad7ac;strokeColor=#b46504;strokeWidth=3;" parent="1" source="pz_hgYm6IndlnWrwU3yr-6" target="pz_hgYm6IndlnWrwU3yr-8" edge="1">
                    <mxGeometry relative="1" as="geometry"/>
                </mxCell>
                <mxCell id="9GlZ5fkVjiMyLJ6wo4WE-7" style="edgeStyle=none;html=1;exitX=0.5;exitY=1;exitDx=0;exitDy=0;strokeWidth=8;fontFamily=Source Code Pro;fontSource=https%3A%2F%2Ffonts.googleapis.com%2Fcss%3Ffamily%3DSource%2BCode%2BPro;fontSize=14;endArrow=none;endFill=0;" parent="1" source="pz_hgYm6IndlnWrwU3yr-6" edge="1">
                    <mxGeometry relative="1" as="geometry">
                        <mxPoint x="159.8620689655172" y="680" as="targetPoint"/>
                    </mxGeometry>
                </mxCell>
                <mxCell id="9GlZ5fkVjiMyLJ6wo4WE-12" style="edgeStyle=none;html=1;exitX=0.5;exitY=0;exitDx=0;exitDy=0;strokeWidth=8;fontFamily=Source Code Pro;fontSource=https%3A%2F%2Ffonts.googleapis.com%2Fcss%3Ffamily%3DSource%2BCode%2BPro;fontSize=14;endArrow=none;endFill=0;fillColor=#fad9d5;strokeColor=#ae4132;" parent="1" source="pz_hgYm6IndlnWrwU3yr-6" edge="1">
                    <mxGeometry relative="1" as="geometry">
                        <mxPoint x="159.8620689655172" y="480" as="targetPoint"/>
                    </mxGeometry>
                </mxCell>
                <mxCell id="pz_hgYm6IndlnWrwU3yr-6" value="" style="rounded=0;whiteSpace=wrap;html=1;strokeColor=default;fontFamily=Source Code Pro;fontSource=https%3A%2F%2Ffonts.googleapis.com%2Fcss%3Ffamily%3DSource%2BCode%2BPro;fontSize=14;" parent="1" vertex="1">
                    <mxGeometry x="100" y="520" width="120" height="120" as="geometry"/>
                </mxCell>
                <mxCell id="pz_hgYm6IndlnWrwU3yr-7" value="" style="ellipse;whiteSpace=wrap;html=1;aspect=fixed;strokeColor=#080808;fontFamily=Source Code Pro;fontSource=https%3A%2F%2Ffonts.googleapis.com%2Fcss%3Ffamily%3DSource%2BCode%2BPro;fontSize=14;fillColor=#9C9C9C;fontColor=#333333;fillStyle=cross-hatch;" parent="1" vertex="1">
                    <mxGeometry x="110" y="530" width="100" height="100" as="geometry"/>
                </mxCell>
                <mxCell id="pz_hgYm6IndlnWrwU3yr-15" style="edgeStyle=none;html=1;exitX=1;exitY=0.5;exitDx=0;exitDy=0;entryX=0;entryY=0.5;entryDx=0;entryDy=0;fontFamily=Source Code Pro;fontSource=https%3A%2F%2Ffonts.googleapis.com%2Fcss%3Ffamily%3DSource%2BCode%2BPro;fontSize=14;fillColor=#fad7ac;strokeColor=#b46504;strokeWidth=3;" parent="1" source="pz_hgYm6IndlnWrwU3yr-8" target="pz_hgYm6IndlnWrwU3yr-10" edge="1">
                    <mxGeometry relative="1" as="geometry"/>
                </mxCell>
                <mxCell id="9GlZ5fkVjiMyLJ6wo4WE-8" style="edgeStyle=none;html=1;exitX=0.5;exitY=1;exitDx=0;exitDy=0;strokeWidth=8;fontFamily=Source Code Pro;fontSource=https%3A%2F%2Ffonts.googleapis.com%2Fcss%3Ffamily%3DSource%2BCode%2BPro;fontSize=14;endArrow=none;endFill=0;" parent="1" source="pz_hgYm6IndlnWrwU3yr-8" edge="1">
                    <mxGeometry relative="1" as="geometry">
                        <mxPoint x="319.8620689655172" y="680" as="targetPoint"/>
                    </mxGeometry>
                </mxCell>
                <mxCell id="9GlZ5fkVjiMyLJ6wo4WE-13" style="edgeStyle=none;html=1;exitX=0.5;exitY=0;exitDx=0;exitDy=0;strokeWidth=8;fontFamily=Source Code Pro;fontSource=https%3A%2F%2Ffonts.googleapis.com%2Fcss%3Ffamily%3DSource%2BCode%2BPro;fontSize=14;endArrow=none;endFill=0;fillColor=#fad9d5;strokeColor=#ae4132;" parent="1" source="pz_hgYm6IndlnWrwU3yr-8" edge="1">
                    <mxGeometry relative="1" as="geometry">
                        <mxPoint x="319.8620689655172" y="480" as="targetPoint"/>
                    </mxGeometry>
                </mxCell>
                <mxCell id="pz_hgYm6IndlnWrwU3yr-8" value="" style="rounded=0;whiteSpace=wrap;html=1;strokeColor=default;fontFamily=Source Code Pro;fontSource=https%3A%2F%2Ffonts.googleapis.com%2Fcss%3Ffamily%3DSource%2BCode%2BPro;fontSize=14;" parent="1" vertex="1">
                    <mxGeometry x="260" y="520" width="120" height="120" as="geometry"/>
                </mxCell>
                <mxCell id="pz_hgYm6IndlnWrwU3yr-9" value="" style="ellipse;whiteSpace=wrap;html=1;aspect=fixed;strokeColor=#080808;fontFamily=Source Code Pro;fontSource=https%3A%2F%2Ffonts.googleapis.com%2Fcss%3Ffamily%3DSource%2BCode%2BPro;fontSize=14;fillColor=#9C9C9C;fontColor=#333333;fillStyle=cross-hatch;" parent="1" vertex="1">
                    <mxGeometry x="270" y="530" width="100" height="100" as="geometry"/>
                </mxCell>
                <mxCell id="pz_hgYm6IndlnWrwU3yr-16" style="edgeStyle=none;html=1;exitX=1;exitY=0.5;exitDx=0;exitDy=0;entryX=0;entryY=0.5;entryDx=0;entryDy=0;fontFamily=Source Code Pro;fontSource=https%3A%2F%2Ffonts.googleapis.com%2Fcss%3Ffamily%3DSource%2BCode%2BPro;fontSize=14;fillColor=#fad7ac;strokeColor=#b46504;strokeWidth=3;" parent="1" source="pz_hgYm6IndlnWrwU3yr-10" target="pz_hgYm6IndlnWrwU3yr-12" edge="1">
                    <mxGeometry relative="1" as="geometry"/>
                </mxCell>
                <mxCell id="9GlZ5fkVjiMyLJ6wo4WE-9" style="edgeStyle=none;html=1;exitX=0.5;exitY=1;exitDx=0;exitDy=0;strokeWidth=8;fontFamily=Source Code Pro;fontSource=https%3A%2F%2Ffonts.googleapis.com%2Fcss%3Ffamily%3DSource%2BCode%2BPro;fontSize=14;endArrow=none;endFill=0;" parent="1" source="pz_hgYm6IndlnWrwU3yr-10" edge="1">
                    <mxGeometry relative="1" as="geometry">
                        <mxPoint x="479.8620689655172" y="680" as="targetPoint"/>
                    </mxGeometry>
                </mxCell>
                <mxCell id="9GlZ5fkVjiMyLJ6wo4WE-14" style="edgeStyle=none;html=1;exitX=0.5;exitY=0;exitDx=0;exitDy=0;strokeWidth=8;fontFamily=Source Code Pro;fontSource=https%3A%2F%2Ffonts.googleapis.com%2Fcss%3Ffamily%3DSource%2BCode%2BPro;fontSize=14;endArrow=none;endFill=0;fillColor=#fad9d5;strokeColor=#ae4132;" parent="1" source="pz_hgYm6IndlnWrwU3yr-10" edge="1">
                    <mxGeometry relative="1" as="geometry">
                        <mxPoint x="479.8620689655172" y="480" as="targetPoint"/>
                    </mxGeometry>
                </mxCell>
                <mxCell id="pz_hgYm6IndlnWrwU3yr-10" value="" style="rounded=0;whiteSpace=wrap;html=1;strokeColor=default;fontFamily=Source Code Pro;fontSource=https%3A%2F%2Ffonts.googleapis.com%2Fcss%3Ffamily%3DSource%2BCode%2BPro;fontSize=14;" parent="1" vertex="1">
                    <mxGeometry x="420" y="520" width="120" height="120" as="geometry"/>
                </mxCell>
                <mxCell id="pz_hgYm6IndlnWrwU3yr-11" value="" style="ellipse;whiteSpace=wrap;html=1;aspect=fixed;strokeColor=#080808;fontFamily=Source Code Pro;fontSource=https%3A%2F%2Ffonts.googleapis.com%2Fcss%3Ffamily%3DSource%2BCode%2BPro;fontSize=14;fillColor=#9C9C9C;fontColor=#333333;fillStyle=cross-hatch;" parent="1" vertex="1">
                    <mxGeometry x="430" y="530" width="100" height="100" as="geometry"/>
                </mxCell>
                <mxCell id="9GlZ5fkVjiMyLJ6wo4WE-11" style="edgeStyle=none;html=1;exitX=0.5;exitY=1;exitDx=0;exitDy=0;strokeWidth=8;fontFamily=Source Code Pro;fontSource=https%3A%2F%2Ffonts.googleapis.com%2Fcss%3Ffamily%3DSource%2BCode%2BPro;fontSize=14;endArrow=none;endFill=0;" parent="1" source="pz_hgYm6IndlnWrwU3yr-12" edge="1">
                    <mxGeometry relative="1" as="geometry">
                        <mxPoint x="639.8620689655172" y="680" as="targetPoint"/>
                    </mxGeometry>
                </mxCell>
                <mxCell id="9GlZ5fkVjiMyLJ6wo4WE-15" style="edgeStyle=none;html=1;exitX=0.5;exitY=0;exitDx=0;exitDy=0;strokeWidth=8;fontFamily=Source Code Pro;fontSource=https%3A%2F%2Ffonts.googleapis.com%2Fcss%3Ffamily%3DSource%2BCode%2BPro;fontSize=14;endArrow=none;endFill=0;fillColor=#fad9d5;strokeColor=#ae4132;" parent="1" source="pz_hgYm6IndlnWrwU3yr-12" edge="1">
                    <mxGeometry relative="1" as="geometry">
                        <mxPoint x="639.8620689655172" y="480" as="targetPoint"/>
                    </mxGeometry>
                </mxCell>
                <mxCell id="pz_hgYm6IndlnWrwU3yr-12" value="" style="rounded=0;whiteSpace=wrap;html=1;strokeColor=default;fontFamily=Source Code Pro;fontSource=https%3A%2F%2Ffonts.googleapis.com%2Fcss%3Ffamily%3DSource%2BCode%2BPro;fontSize=14;" parent="1" vertex="1">
                    <mxGeometry x="580" y="520" width="120" height="120" as="geometry"/>
                </mxCell>
                <mxCell id="pz_hgYm6IndlnWrwU3yr-13" value="" style="ellipse;whiteSpace=wrap;html=1;aspect=fixed;strokeColor=#080808;fontFamily=Source Code Pro;fontSource=https%3A%2F%2Ffonts.googleapis.com%2Fcss%3Ffamily%3DSource%2BCode%2BPro;fontSize=14;fillColor=#9C9C9C;fontColor=#333333;fillStyle=cross-hatch;" parent="1" vertex="1">
                    <mxGeometry x="590" y="530" width="100" height="100" as="geometry"/>
                </mxCell>
                <mxCell id="pz_hgYm6IndlnWrwU3yr-17" style="edgeStyle=none;html=1;entryX=0;entryY=0.5;entryDx=0;entryDy=0;fontFamily=Source Code Pro;fontSource=https%3A%2F%2Ffonts.googleapis.com%2Fcss%3Ffamily%3DSource%2BCode%2BPro;fontSize=14;fillColor=#fad7ac;strokeColor=#b46504;strokeWidth=3;" parent="1" edge="1">
                    <mxGeometry relative="1" as="geometry">
                        <mxPoint x="10" y="580" as="sourcePoint"/>
                        <mxPoint x="100" y="580" as="targetPoint"/>
                    </mxGeometry>
                </mxCell>
                <mxCell id="9GlZ5fkVjiMyLJ6wo4WE-16" value="Data In" style="edgeLabel;html=1;align=center;verticalAlign=middle;resizable=0;points=[];fontSize=14;fontFamily=Source Code Pro;" parent="pz_hgYm6IndlnWrwU3yr-17" vertex="1" connectable="0">
                    <mxGeometry x="-0.2904" y="-1" relative="1" as="geometry">
                        <mxPoint x="8" y="-21" as="offset"/>
                    </mxGeometry>
                </mxCell>
                <mxCell id="9GlZ5fkVjiMyLJ6wo4WE-5" style="edgeStyle=none;html=1;exitX=1;exitY=0.5;exitDx=0;exitDy=0;entryX=0;entryY=0.5;entryDx=0;entryDy=0;fontFamily=Source Code Pro;fontSource=https%3A%2F%2Ffonts.googleapis.com%2Fcss%3Ffamily%3DSource%2BCode%2BPro;fontSize=14;endArrow=none;endFill=0;fillColor=#fad9d5;strokeColor=#ae4132;strokeWidth=8;" parent="1" source="9GlZ5fkVjiMyLJ6wo4WE-1" target="9GlZ5fkVjiMyLJ6wo4WE-2" edge="1">
                    <mxGeometry relative="1" as="geometry"/>
                </mxCell>
                <mxCell id="9GlZ5fkVjiMyLJ6wo4WE-1" value="" style="ellipse;whiteSpace=wrap;html=1;aspect=fixed;fillStyle=auto;strokeColor=#b85450;fontFamily=Source Code Pro;fontSource=https%3A%2F%2Ffonts.googleapis.com%2Fcss%3Ffamily%3DSource%2BCode%2BPro;fontSize=14;fillColor=#f8cecc;" parent="1" vertex="1">
                    <mxGeometry x="70" y="470" width="20" height="20" as="geometry"/>
                </mxCell>
                <mxCell id="9GlZ5fkVjiMyLJ6wo4WE-2" value="" style="ellipse;whiteSpace=wrap;html=1;aspect=fixed;fillStyle=auto;strokeColor=#b85450;fontFamily=Source Code Pro;fontSource=https%3A%2F%2Ffonts.googleapis.com%2Fcss%3Ffamily%3DSource%2BCode%2BPro;fontSize=14;fillColor=#f8cecc;" parent="1" vertex="1">
                    <mxGeometry x="710" y="470" width="20" height="20" as="geometry"/>
                </mxCell>
                <mxCell id="9GlZ5fkVjiMyLJ6wo4WE-6" style="edgeStyle=none;html=1;exitX=1;exitY=0.5;exitDx=0;exitDy=0;entryX=0;entryY=0.5;entryDx=0;entryDy=0;strokeWidth=8;fontFamily=Source Code Pro;fontSource=https%3A%2F%2Ffonts.googleapis.com%2Fcss%3Ffamily%3DSource%2BCode%2BPro;fontSize=14;endArrow=none;endFill=0;" parent="1" source="9GlZ5fkVjiMyLJ6wo4WE-3" target="9GlZ5fkVjiMyLJ6wo4WE-4" edge="1">
                    <mxGeometry relative="1" as="geometry"/>
                </mxCell>
                <mxCell id="9GlZ5fkVjiMyLJ6wo4WE-3" value="" style="ellipse;whiteSpace=wrap;html=1;aspect=fixed;fillStyle=auto;strokeColor=#23445d;fontFamily=Source Code Pro;fontSource=https%3A%2F%2Ffonts.googleapis.com%2Fcss%3Ffamily%3DSource%2BCode%2BPro;fontSize=14;fillColor=#bac8d3;" parent="1" vertex="1">
                    <mxGeometry x="70" y="670" width="20" height="20" as="geometry"/>
                </mxCell>
                <mxCell id="9GlZ5fkVjiMyLJ6wo4WE-4" value="" style="ellipse;whiteSpace=wrap;html=1;aspect=fixed;fillStyle=auto;strokeColor=#23445d;fontFamily=Source Code Pro;fontSource=https%3A%2F%2Ffonts.googleapis.com%2Fcss%3Ffamily%3DSource%2BCode%2BPro;fontSize=14;fillColor=#bac8d3;" parent="1" vertex="1">
                    <mxGeometry x="710" y="670" width="20" height="20" as="geometry"/>
                </mxCell>
                <mxCell id="-H_-A31te1JYBPckc44u-1" value="" style="endArrow=none;html=1;strokeWidth=1;fontFamily=Source Code Pro;fontSource=https%3A%2F%2Ffonts.googleapis.com%2Fcss%3Ffamily%3DSource%2BCode%2BPro;fontSize=14;" parent="1" edge="1">
                    <mxGeometry width="50" height="50" relative="1" as="geometry">
                        <mxPoint x="560" y="280" as="sourcePoint"/>
                        <mxPoint x="560" y="40" as="targetPoint"/>
                    </mxGeometry>
                </mxCell>
                <mxCell id="-H_-A31te1JYBPckc44u-4" value="5mm" style="edgeLabel;html=1;align=center;verticalAlign=middle;resizable=0;points=[];fontSize=14;fontFamily=Source Code Pro;" parent="-H_-A31te1JYBPckc44u-1" vertex="1" connectable="0">
                    <mxGeometry x="0.0661" y="1" relative="1" as="geometry">
                        <mxPoint x="31" as="offset"/>
                    </mxGeometry>
                </mxCell>
                <mxCell id="-H_-A31te1JYBPckc44u-2" value="" style="endArrow=none;html=1;strokeWidth=1;fontFamily=Source Code Pro;fontSource=https%3A%2F%2Ffonts.googleapis.com%2Fcss%3Ffamily%3DSource%2BCode%2BPro;fontSize=14;" parent="1" edge="1">
                    <mxGeometry width="50" height="50" relative="1" as="geometry">
                        <mxPoint x="570" y="40" as="sourcePoint"/>
                        <mxPoint x="550" y="40" as="targetPoint"/>
                    </mxGeometry>
                </mxCell>
                <mxCell id="-H_-A31te1JYBPckc44u-3" value="" style="endArrow=none;html=1;strokeWidth=1;fontFamily=Source Code Pro;fontSource=https%3A%2F%2Ffonts.googleapis.com%2Fcss%3Ffamily%3DSource%2BCode%2BPro;fontSize=14;" parent="1" edge="1">
                    <mxGeometry width="50" height="50" relative="1" as="geometry">
                        <mxPoint x="570" y="280" as="sourcePoint"/>
                        <mxPoint x="550" y="280" as="targetPoint"/>
                    </mxGeometry>
                </mxCell>
                <mxCell id="-H_-A31te1JYBPckc44u-6" value="" style="endArrow=none;html=1;strokeWidth=1;fontFamily=Source Code Pro;fontSource=https%3A%2F%2Ffonts.googleapis.com%2Fcss%3Ffamily%3DSource%2BCode%2BPro;fontSize=14;" parent="1" edge="1">
                    <mxGeometry width="50" height="50" relative="1" as="geometry">
                        <mxPoint x="520" y="320" as="sourcePoint"/>
                        <mxPoint x="280" y="320" as="targetPoint"/>
                    </mxGeometry>
                </mxCell>
                <mxCell id="-H_-A31te1JYBPckc44u-7" value="5mm" style="edgeLabel;html=1;align=center;verticalAlign=middle;resizable=0;points=[];fontSize=14;fontFamily=Source Code Pro;" parent="-H_-A31te1JYBPckc44u-6" vertex="1" connectable="0">
                    <mxGeometry x="0.0661" y="1" relative="1" as="geometry">
                        <mxPoint x="8" y="19" as="offset"/>
                    </mxGeometry>
                </mxCell>
                <mxCell id="-H_-A31te1JYBPckc44u-10" value="" style="endArrow=none;html=1;strokeWidth=1;fontFamily=Source Code Pro;fontSource=https%3A%2F%2Ffonts.googleapis.com%2Fcss%3Ffamily%3DSource%2BCode%2BPro;fontSize=14;" parent="1" edge="1">
                    <mxGeometry width="50" height="50" relative="1" as="geometry">
                        <mxPoint x="280" y="310" as="sourcePoint"/>
                        <mxPoint x="280" y="330" as="targetPoint"/>
                    </mxGeometry>
                </mxCell>
                <mxCell id="-H_-A31te1JYBPckc44u-11" value="" style="endArrow=none;html=1;strokeWidth=1;fontFamily=Source Code Pro;fontSource=https%3A%2F%2Ffonts.googleapis.com%2Fcss%3Ffamily%3DSource%2BCode%2BPro;fontSize=14;" parent="1" edge="1">
                    <mxGeometry width="50" height="50" relative="1" as="geometry">
                        <mxPoint x="520" y="310" as="sourcePoint"/>
                        <mxPoint x="520" y="330" as="targetPoint"/>
                    </mxGeometry>
                </mxCell>
            </root>
        </mxGraphModel>
    </diagram>
    <diagram id="cFDWaZna7TuMgl9mYknu" name="Signalling">
        <mxGraphModel dx="1961" dy="604" grid="1" gridSize="10" guides="1" tooltips="1" connect="1" arrows="1" fold="1" page="1" pageScale="1" pageWidth="850" pageHeight="1100" math="0" shadow="0">
            <root>
                <mxCell id="0"/>
                <mxCell id="1" parent="0"/>
                <mxCell id="16" value="&lt;font style=&quot;font-size: 21px;&quot; data-font-src=&quot;https://fonts.googleapis.com/css?family=Source+Code+Pro&quot; face=&quot;Source Code Pro&quot;&gt;800ns&lt;/font&gt;" style="text;html=1;strokeColor=none;fillColor=none;align=center;verticalAlign=middle;whiteSpace=wrap;rounded=0;" parent="1" vertex="1">
                    <mxGeometry x="120" y="80" width="360" height="40" as="geometry"/>
                </mxCell>
                <mxCell id="18" value="&lt;font style=&quot;font-size: 21px;&quot; data-font-src=&quot;https://fonts.googleapis.com/css?family=Source+Code+Pro&quot; face=&quot;Source Code Pro&quot;&gt;450ns&lt;/font&gt;" style="text;html=1;strokeColor=none;fillColor=none;align=center;verticalAlign=middle;whiteSpace=wrap;rounded=0;" parent="1" vertex="1">
                    <mxGeometry x="360" y="160" width="120" height="40" as="geometry"/>
                </mxCell>
                <mxCell id="2" value="" style="endArrow=none;html=1;" parent="1" edge="1">
                    <mxGeometry width="50" height="50" relative="1" as="geometry">
                        <mxPoint y="80" as="sourcePoint"/>
                        <mxPoint x="120" y="80" as="targetPoint"/>
                    </mxGeometry>
                </mxCell>
                <mxCell id="3" value="" style="endArrow=none;html=1;" parent="1" edge="1">
                    <mxGeometry width="50" height="50" relative="1" as="geometry">
                        <mxPoint y="120" as="sourcePoint"/>
                        <mxPoint y="80" as="targetPoint"/>
                    </mxGeometry>
                </mxCell>
                <mxCell id="4" value="" style="endArrow=none;html=1;" parent="1" edge="1">
                    <mxGeometry width="50" height="50" relative="1" as="geometry">
                        <mxPoint x="120" y="120" as="sourcePoint"/>
                        <mxPoint x="120" y="80" as="targetPoint"/>
                    </mxGeometry>
                </mxCell>
                <mxCell id="5" value="" style="endArrow=none;html=1;" parent="1" edge="1">
                    <mxGeometry width="50" height="50" relative="1" as="geometry">
                        <mxPoint x="120" y="120" as="sourcePoint"/>
                        <mxPoint x="480" y="120" as="targetPoint"/>
                    </mxGeometry>
                </mxCell>
                <mxCell id="7" value="&lt;font style=&quot;font-size: 28px;&quot; data-font-src=&quot;https://fonts.googleapis.com/css?family=Source+Code+Pro&quot; face=&quot;Source Code Pro&quot;&gt;0&lt;/font&gt;" style="text;html=1;strokeColor=none;fillColor=none;align=center;verticalAlign=middle;whiteSpace=wrap;rounded=0;" parent="1" vertex="1">
                    <mxGeometry x="-80" y="80" width="40" height="40" as="geometry"/>
                </mxCell>
                <mxCell id="8" value="" style="endArrow=none;html=1;" parent="1" edge="1">
                    <mxGeometry width="50" height="50" relative="1" as="geometry">
                        <mxPoint x="360" y="200" as="sourcePoint"/>
                        <mxPoint x="480" y="200" as="targetPoint"/>
                    </mxGeometry>
                </mxCell>
                <mxCell id="9" value="" style="endArrow=none;html=1;" parent="1" edge="1">
                    <mxGeometry width="50" height="50" relative="1" as="geometry">
                        <mxPoint y="200" as="sourcePoint"/>
                        <mxPoint y="160" as="targetPoint"/>
                    </mxGeometry>
                </mxCell>
                <mxCell id="10" value="" style="endArrow=none;html=1;" parent="1" edge="1">
                    <mxGeometry width="50" height="50" relative="1" as="geometry">
                        <mxPoint x="360" y="200" as="sourcePoint"/>
                        <mxPoint x="360" y="160" as="targetPoint"/>
                    </mxGeometry>
                </mxCell>
                <mxCell id="11" value="" style="endArrow=none;html=1;" parent="1" edge="1">
                    <mxGeometry width="50" height="50" relative="1" as="geometry">
                        <mxPoint y="160" as="sourcePoint"/>
                        <mxPoint x="360" y="160" as="targetPoint"/>
                    </mxGeometry>
                </mxCell>
                <mxCell id="13" value="&lt;font style=&quot;font-size: 28px;&quot; data-font-src=&quot;https://fonts.googleapis.com/css?family=Source+Code+Pro&quot; face=&quot;Source Code Pro&quot;&gt;1&lt;/font&gt;" style="text;html=1;strokeColor=none;fillColor=none;align=center;verticalAlign=middle;whiteSpace=wrap;rounded=0;" parent="1" vertex="1">
                    <mxGeometry x="-80" y="160" width="40" height="40" as="geometry"/>
                </mxCell>
                <mxCell id="14" value="&lt;font style=&quot;font-size: 21px;&quot; data-font-src=&quot;https://fonts.googleapis.com/css?family=Source+Code+Pro&quot; face=&quot;Source Code Pro&quot;&gt;400ns&lt;/font&gt;" style="text;html=1;strokeColor=none;fillColor=none;align=center;verticalAlign=middle;whiteSpace=wrap;rounded=0;" parent="1" vertex="1">
                    <mxGeometry y="80" width="120" height="40" as="geometry"/>
                </mxCell>
                <mxCell id="17" value="&lt;font style=&quot;font-size: 21px;&quot; data-font-src=&quot;https://fonts.googleapis.com/css?family=Source+Code+Pro&quot; face=&quot;Source Code Pro&quot;&gt;850ns&lt;/font&gt;" style="text;html=1;strokeColor=none;fillColor=none;align=center;verticalAlign=middle;whiteSpace=wrap;rounded=0;" parent="1" vertex="1">
                    <mxGeometry y="160" width="360" height="40" as="geometry"/>
                </mxCell>
                <mxCell id="19" value="Green" style="rounded=0;whiteSpace=wrap;html=1;fontFamily=Source Code Pro;fontSource=https%3A%2F%2Ffonts.googleapis.com%2Fcss%3Ffamily%3DSource%2BCode%2BPro;fontSize=21;fillColor=#d5e8d4;strokeColor=#82b366;" parent="1" vertex="1">
                    <mxGeometry x="-160" y="280" width="320" height="40" as="geometry"/>
                </mxCell>
                <mxCell id="20" value="Red" style="rounded=0;whiteSpace=wrap;html=1;fontFamily=Source Code Pro;fontSource=https%3A%2F%2Ffonts.googleapis.com%2Fcss%3Ffamily%3DSource%2BCode%2BPro;fontSize=21;fillColor=#f8cecc;strokeColor=#b85450;" parent="1" vertex="1">
                    <mxGeometry x="160" y="280" width="320" height="40" as="geometry"/>
                </mxCell>
                <mxCell id="21" value="Blue" style="rounded=0;whiteSpace=wrap;html=1;fontFamily=Source Code Pro;fontSource=https%3A%2F%2Ffonts.googleapis.com%2Fcss%3Ffamily%3DSource%2BCode%2BPro;fontSize=21;fillColor=#dae8fc;strokeColor=#6c8ebf;" parent="1" vertex="1">
                    <mxGeometry x="480" y="280" width="320" height="40" as="geometry"/>
                </mxCell>
                <mxCell id="23" value="7" style="text;html=1;strokeColor=default;fillColor=none;align=center;verticalAlign=middle;whiteSpace=wrap;rounded=0;fontFamily=Source Code Pro;fontSource=https%3A%2F%2Ffonts.googleapis.com%2Fcss%3Ffamily%3DSource%2BCode%2BPro;fontSize=15;dashed=1;opacity=25;" parent="1" vertex="1">
                    <mxGeometry x="-160" y="320" width="40" height="40" as="geometry"/>
                </mxCell>
                <mxCell id="24" value="6" style="text;html=1;strokeColor=default;fillColor=none;align=center;verticalAlign=middle;whiteSpace=wrap;rounded=0;fontFamily=Source Code Pro;fontSource=https%3A%2F%2Ffonts.googleapis.com%2Fcss%3Ffamily%3DSource%2BCode%2BPro;fontSize=15;dashed=1;opacity=25;" parent="1" vertex="1">
                    <mxGeometry x="-120" y="320" width="40" height="40" as="geometry"/>
                </mxCell>
                <mxCell id="25" value="5" style="text;html=1;strokeColor=default;fillColor=none;align=center;verticalAlign=middle;whiteSpace=wrap;rounded=0;fontFamily=Source Code Pro;fontSource=https%3A%2F%2Ffonts.googleapis.com%2Fcss%3Ffamily%3DSource%2BCode%2BPro;fontSize=15;dashed=1;opacity=25;" parent="1" vertex="1">
                    <mxGeometry x="-80" y="320" width="40" height="40" as="geometry"/>
                </mxCell>
                <mxCell id="26" value="4" style="text;html=1;strokeColor=default;fillColor=none;align=center;verticalAlign=middle;whiteSpace=wrap;rounded=0;fontFamily=Source Code Pro;fontSource=https%3A%2F%2Ffonts.googleapis.com%2Fcss%3Ffamily%3DSource%2BCode%2BPro;fontSize=15;dashed=1;opacity=25;" parent="1" vertex="1">
                    <mxGeometry x="-40" y="320" width="40" height="40" as="geometry"/>
                </mxCell>
                <mxCell id="27" value="3" style="text;html=1;strokeColor=default;fillColor=none;align=center;verticalAlign=middle;whiteSpace=wrap;rounded=0;fontFamily=Source Code Pro;fontSource=https%3A%2F%2Ffonts.googleapis.com%2Fcss%3Ffamily%3DSource%2BCode%2BPro;fontSize=15;dashed=1;opacity=25;" parent="1" vertex="1">
                    <mxGeometry y="320" width="40" height="40" as="geometry"/>
                </mxCell>
                <mxCell id="28" value="2" style="text;html=1;strokeColor=default;fillColor=none;align=center;verticalAlign=middle;whiteSpace=wrap;rounded=0;fontFamily=Source Code Pro;fontSource=https%3A%2F%2Ffonts.googleapis.com%2Fcss%3Ffamily%3DSource%2BCode%2BPro;fontSize=15;dashed=1;opacity=25;" parent="1" vertex="1">
                    <mxGeometry x="40" y="320" width="40" height="40" as="geometry"/>
                </mxCell>
                <mxCell id="29" value="1" style="text;html=1;strokeColor=default;fillColor=none;align=center;verticalAlign=middle;whiteSpace=wrap;rounded=0;fontFamily=Source Code Pro;fontSource=https%3A%2F%2Ffonts.googleapis.com%2Fcss%3Ffamily%3DSource%2BCode%2BPro;fontSize=15;dashed=1;opacity=25;" parent="1" vertex="1">
                    <mxGeometry x="80" y="320" width="40" height="40" as="geometry"/>
                </mxCell>
                <mxCell id="30" value="0" style="text;html=1;strokeColor=default;fillColor=none;align=center;verticalAlign=middle;whiteSpace=wrap;rounded=0;fontFamily=Source Code Pro;fontSource=https%3A%2F%2Ffonts.googleapis.com%2Fcss%3Ffamily%3DSource%2BCode%2BPro;fontSize=15;dashed=1;opacity=25;" parent="1" vertex="1">
                    <mxGeometry x="120" y="320" width="40" height="40" as="geometry"/>
                </mxCell>
                <mxCell id="31" value="7" style="text;html=1;strokeColor=default;fillColor=none;align=center;verticalAlign=middle;whiteSpace=wrap;rounded=0;fontFamily=Source Code Pro;fontSource=https%3A%2F%2Ffonts.googleapis.com%2Fcss%3Ffamily%3DSource%2BCode%2BPro;fontSize=15;dashed=1;opacity=25;" parent="1" vertex="1">
                    <mxGeometry x="160" y="320" width="40" height="40" as="geometry"/>
                </mxCell>
                <mxCell id="32" value="6" style="text;html=1;strokeColor=default;fillColor=none;align=center;verticalAlign=middle;whiteSpace=wrap;rounded=0;fontFamily=Source Code Pro;fontSource=https%3A%2F%2Ffonts.googleapis.com%2Fcss%3Ffamily%3DSource%2BCode%2BPro;fontSize=15;dashed=1;opacity=25;" parent="1" vertex="1">
                    <mxGeometry x="200" y="320" width="40" height="40" as="geometry"/>
                </mxCell>
                <mxCell id="33" value="5" style="text;html=1;strokeColor=default;fillColor=none;align=center;verticalAlign=middle;whiteSpace=wrap;rounded=0;fontFamily=Source Code Pro;fontSource=https%3A%2F%2Ffonts.googleapis.com%2Fcss%3Ffamily%3DSource%2BCode%2BPro;fontSize=15;dashed=1;opacity=25;" parent="1" vertex="1">
                    <mxGeometry x="240" y="320" width="40" height="40" as="geometry"/>
                </mxCell>
                <mxCell id="34" value="4" style="text;html=1;strokeColor=default;fillColor=none;align=center;verticalAlign=middle;whiteSpace=wrap;rounded=0;fontFamily=Source Code Pro;fontSource=https%3A%2F%2Ffonts.googleapis.com%2Fcss%3Ffamily%3DSource%2BCode%2BPro;fontSize=15;dashed=1;opacity=25;" parent="1" vertex="1">
                    <mxGeometry x="280" y="320" width="40" height="40" as="geometry"/>
                </mxCell>
                <mxCell id="35" value="3" style="text;html=1;strokeColor=default;fillColor=none;align=center;verticalAlign=middle;whiteSpace=wrap;rounded=0;fontFamily=Source Code Pro;fontSource=https%3A%2F%2Ffonts.googleapis.com%2Fcss%3Ffamily%3DSource%2BCode%2BPro;fontSize=15;dashed=1;opacity=25;" parent="1" vertex="1">
                    <mxGeometry x="320" y="320" width="40" height="40" as="geometry"/>
                </mxCell>
                <mxCell id="36" value="2" style="text;html=1;strokeColor=default;fillColor=none;align=center;verticalAlign=middle;whiteSpace=wrap;rounded=0;fontFamily=Source Code Pro;fontSource=https%3A%2F%2Ffonts.googleapis.com%2Fcss%3Ffamily%3DSource%2BCode%2BPro;fontSize=15;dashed=1;opacity=25;" parent="1" vertex="1">
                    <mxGeometry x="360" y="320" width="40" height="40" as="geometry"/>
                </mxCell>
                <mxCell id="37" value="1" style="text;html=1;strokeColor=default;fillColor=none;align=center;verticalAlign=middle;whiteSpace=wrap;rounded=0;fontFamily=Source Code Pro;fontSource=https%3A%2F%2Ffonts.googleapis.com%2Fcss%3Ffamily%3DSource%2BCode%2BPro;fontSize=15;dashed=1;opacity=25;" parent="1" vertex="1">
                    <mxGeometry x="400" y="320" width="40" height="40" as="geometry"/>
                </mxCell>
                <mxCell id="38" value="0" style="text;html=1;strokeColor=default;fillColor=none;align=center;verticalAlign=middle;whiteSpace=wrap;rounded=0;fontFamily=Source Code Pro;fontSource=https%3A%2F%2Ffonts.googleapis.com%2Fcss%3Ffamily%3DSource%2BCode%2BPro;fontSize=15;dashed=1;opacity=25;" parent="1" vertex="1">
                    <mxGeometry x="440" y="320" width="40" height="40" as="geometry"/>
                </mxCell>
                <mxCell id="39" value="7" style="text;html=1;strokeColor=default;fillColor=none;align=center;verticalAlign=middle;whiteSpace=wrap;rounded=0;fontFamily=Source Code Pro;fontSource=https%3A%2F%2Ffonts.googleapis.com%2Fcss%3Ffamily%3DSource%2BCode%2BPro;fontSize=15;dashed=1;opacity=25;" parent="1" vertex="1">
                    <mxGeometry x="480" y="320" width="40" height="40" as="geometry"/>
                </mxCell>
                <mxCell id="40" value="6" style="text;html=1;strokeColor=default;fillColor=none;align=center;verticalAlign=middle;whiteSpace=wrap;rounded=0;fontFamily=Source Code Pro;fontSource=https%3A%2F%2Ffonts.googleapis.com%2Fcss%3Ffamily%3DSource%2BCode%2BPro;fontSize=15;dashed=1;opacity=25;" parent="1" vertex="1">
                    <mxGeometry x="520" y="320" width="40" height="40" as="geometry"/>
                </mxCell>
                <mxCell id="41" value="5" style="text;html=1;strokeColor=default;fillColor=none;align=center;verticalAlign=middle;whiteSpace=wrap;rounded=0;fontFamily=Source Code Pro;fontSource=https%3A%2F%2Ffonts.googleapis.com%2Fcss%3Ffamily%3DSource%2BCode%2BPro;fontSize=15;dashed=1;opacity=25;" parent="1" vertex="1">
                    <mxGeometry x="560" y="320" width="40" height="40" as="geometry"/>
                </mxCell>
                <mxCell id="42" value="4" style="text;html=1;strokeColor=default;fillColor=none;align=center;verticalAlign=middle;whiteSpace=wrap;rounded=0;fontFamily=Source Code Pro;fontSource=https%3A%2F%2Ffonts.googleapis.com%2Fcss%3Ffamily%3DSource%2BCode%2BPro;fontSize=15;dashed=1;opacity=25;" parent="1" vertex="1">
                    <mxGeometry x="600" y="320" width="40" height="40" as="geometry"/>
                </mxCell>
                <mxCell id="43" value="3" style="text;html=1;strokeColor=default;fillColor=none;align=center;verticalAlign=middle;whiteSpace=wrap;rounded=0;fontFamily=Source Code Pro;fontSource=https%3A%2F%2Ffonts.googleapis.com%2Fcss%3Ffamily%3DSource%2BCode%2BPro;fontSize=15;dashed=1;opacity=25;" parent="1" vertex="1">
                    <mxGeometry x="640" y="320" width="40" height="40" as="geometry"/>
                </mxCell>
                <mxCell id="44" value="2" style="text;html=1;strokeColor=default;fillColor=none;align=center;verticalAlign=middle;whiteSpace=wrap;rounded=0;fontFamily=Source Code Pro;fontSource=https%3A%2F%2Ffonts.googleapis.com%2Fcss%3Ffamily%3DSource%2BCode%2BPro;fontSize=15;dashed=1;opacity=25;" parent="1" vertex="1">
                    <mxGeometry x="680" y="320" width="40" height="40" as="geometry"/>
                </mxCell>
                <mxCell id="45" value="1" style="text;html=1;strokeColor=default;fillColor=none;align=center;verticalAlign=middle;whiteSpace=wrap;rounded=0;fontFamily=Source Code Pro;fontSource=https%3A%2F%2Ffonts.googleapis.com%2Fcss%3Ffamily%3DSource%2BCode%2BPro;fontSize=15;dashed=1;opacity=25;" parent="1" vertex="1">
                    <mxGeometry x="720" y="320" width="40" height="40" as="geometry"/>
                </mxCell>
                <mxCell id="46" value="0" style="text;html=1;strokeColor=default;fillColor=none;align=center;verticalAlign=middle;whiteSpace=wrap;rounded=0;fontFamily=Source Code Pro;fontSource=https%3A%2F%2Ffonts.googleapis.com%2Fcss%3Ffamily%3DSource%2BCode%2BPro;fontSize=15;dashed=1;opacity=25;" parent="1" vertex="1">
                    <mxGeometry x="760" y="320" width="40" height="40" as="geometry"/>
                </mxCell>
                <mxCell id="47" value="&lt;font face=&quot;Source Code Pro&quot;&gt;&lt;span style=&quot;font-size: 21px;&quot;&gt;1200ns &lt;/span&gt;&lt;i style=&quot;&quot;&gt;&lt;font style=&quot;font-size: 14px;&quot;&gt;+/- 300ns&lt;/font&gt;&lt;/i&gt;&lt;/font&gt;" style="text;html=1;strokeColor=none;fillColor=none;align=center;verticalAlign=middle;whiteSpace=wrap;rounded=0;" parent="1" vertex="1">
                    <mxGeometry x="480" y="80" width="240" height="40" as="geometry"/>
                </mxCell>
                <mxCell id="48" value="&lt;font face=&quot;Source Code Pro&quot;&gt;&lt;span style=&quot;font-size: 21px;&quot;&gt;1300ns &lt;/span&gt;&lt;i style=&quot;&quot;&gt;&lt;font style=&quot;font-size: 14px;&quot;&gt;+/- 300ns&lt;/font&gt;&lt;/i&gt;&lt;/font&gt;" style="text;html=1;strokeColor=none;fillColor=none;align=center;verticalAlign=middle;whiteSpace=wrap;rounded=0;" parent="1" vertex="1">
                    <mxGeometry x="480" y="160" width="240" height="40" as="geometry"/>
                </mxCell>
            </root>
        </mxGraphModel>
    </diagram>
</mxfile>